<mxfile host="app.diagrams.net" modified="2023-11-26T15:20:14.542Z" agent="Mozilla/5.0 (Macintosh; Intel Mac OS X 10_15_7) AppleWebKit/537.36 (KHTML, like Gecko) Chrome/119.0.0.0 Safari/537.36" version="22.1.4" etag="O7C_B2ispSef5f2iAmYP" type="github">
  <diagram name="第 1 页" id="E11nm-C4nkSwMhWEvsDo">
    <mxGraphModel>
      <root>
        <mxCell id="0" />
        <mxCell id="1" parent="0" />
      </root>
    </mxGraphModel>
  </diagram>
</mxfile>
